# xmcd
#
# Track frame offsets:
#	150
#	10173
#	18817
#	29328
#	39234
#	52820
#	64890
#	76413
#	85763
#	96814
#	107134
#	119138
#	132453
#	144359
#	155526
#	167022
#	178402
#	187057
#	197414
#	211007
#	223061
#	235823
#
# Disc length: 3301 seconds
#
# Revision: 1
# Processed by: cddbd v1.5.2PL0 Copyright (c) Steve Scherf et al.
# Submitted via: audiograbber 1.83.01
#
DISCID=2c0ce316
DTITLE=Various Artist - Stompin' 27: Rockin' Blues Classics
DYEAR=1900
DGENRE=Blues
TTITLE0=Schoolboy Cleve - She's Gone
TTITLE1=Jo Jo Williams - Rock 'n' Roll Boogie
TTITLE2=Sunnyland Slim - It's You Baby
TTITLE3=Eddie Jones - Certainly All
TTITLE4=Calvin Frazier - Track Down
TTITLE5=Willie Nix - Just Can't Stay
TTITLE6=Big Ed - Biscuit Baking Mama
TTITLE7=Little Sonny - I Love You Baby Until The Day I Die
TTITLE8=McKinley James - Ain't Gonna Pick No Cotton
TTITLE9=Little Walter - Miss O'Mally's Rally
TTITLE10=Dr. Ross - Industrial Boogie
TTITLE11=Sunnyland Slim - Going Back To Memphis
TTITLE12=John Lee - Rhythm Rockin' Boogie
TTITLE13=Clarence Johnson - That's Not Right
TTITLE14=Clarence Johnson - Baby Come Back To Me
TTITLE15=Birmingham Junior - You're Too Bad
TTITLE16=Elmon Mickle - Jackson Blues
TTITLE17=Elmon Mickle - Lonesome Highway
TTITLE18=Jimmy Rogers - Sloppy Drunk
TTITLE19=Joe Hill Louis - Hydramatic Woman
TTITLE20=Clear Waters (Eddy Harrington) - Boogie Woogie Baby
TTITLE21=Clifford King - Chicken Shack Boogie
EXTD=
EXTT0=
EXTT1=
EXTT2=
EXTT3=
EXTT4=
EXTT5=
EXTT6=
EXTT7=
EXTT8=
EXTT9=
EXTT10=
EXTT11=
EXTT12=
EXTT13=
EXTT14=
EXTT15=
EXTT16=
EXTT17=
EXTT18=
EXTT19=
EXTT20=
EXTT21=
PLAYORDER=
